<?xml version="1.0" encoding="UTF-8" standalone="no"?>
<!DOCTYPE svg PUBLIC "-//W3C//DTD SVG 20010904//EN"
              "http://www.w3.org/TR/2001/REC-SVG-20010904/DTD/svg10.dtd">

<svg xmlns="http://www.w3.org/2000/svg"
     width="6.4in" height="3.6in"
     viewBox="0 0 1920 1080">
  <path id="mask"
        fill="none" stroke="black" stroke-width="1"
        d="M 222.00,507.00
           C 222.00,507.00 265.50,636.00 265.50,636.00
             265.50,636.00 288.00,537.00 288.00,537.00
             288.00,537.00 328.50,616.50 328.50,616.50
             328.50,616.50 339.00,511.50 339.00,511.50
             339.00,511.50 388.50,538.50 388.50,538.50
             388.50,538.50 373.50,585.00 373.50,585.00
             373.50,585.00 369.00,627.00 384.00,619.50
             399.00,612.00 472.50,591.00 409.50,553.50
             346.50,516.00 457.50,532.50 457.50,532.50
             457.50,532.50 462.00,618.00 462.00,616.50
             462.00,615.00 469.50,498.00 511.50,537.00
             553.50,576.00 531.00,526.50 531.00,526.50
             531.00,526.50 544.50,606.00 544.50,606.00
             544.50,606.00 603.00,432.00 591.00,609.00
             579.00,786.00 616.50,568.50 616.50,568.50
             616.50,568.50 660.00,561.00 660.00,561.00
             660.00,561.00 705.00,526.50 705.00,526.50
             705.00,526.50 660.00,610.50 702.00,601.50
             744.00,592.50 769.50,588.00 721.50,538.50
             673.50,489.00 781.50,513.00 784.50,514.50
             787.50,516.00 730.50,709.50 829.50,520.50
             928.50,331.50 783.00,553.50 843.00,604.50
             903.00,655.50 853.50,540.00 853.50,540.00
             853.50,540.00 1033.50,520.50 895.50,487.50
             757.50,454.50 903.00,352.50 900.00,600.00
             897.00,847.50 1008.00,457.50 1008.00,460.50
             1008.00,463.50 1063.50,505.50 1063.50,507.00
             1063.50,508.50 1020.00,502.50 1017.00,580.50
             1014.00,658.50 1111.50,427.50 1078.50,522.00
             1117.50,606.00 1080.00,636.00 1053.00,657.00
             1029.00,694.50 1125.00,487.50 1137.00,516.00
             1149.00,544.50 1107.00,478.50 1120.50,582.00
             1174.50,622.50 1191.00,525.00 1150.50,523.50
             1092.00,412.50 1221.00,511.50 1221.00,511.50
             1221.00,511.50 1197.00,529.50 1197.00,564.00
             1197.00,598.50 1245.00,588.00 1257.00,559.50
             1269.00,531.00 1225.50,507.00 1234.50,519.00
             1243.50,531.00 1327.50,496.50 1327.50,496.50
             1327.50,496.50 1254.00,555.00 1287.00,588.00
             1320.00,621.00 1366.50,384.00 1342.50,510.00
             1318.50,636.00 1339.50,444.00 1339.50,444.00
             1339.50,444.00 1345.50,577.50 1345.50,577.50
             1345.50,577.50 1372.50,453.00 1372.50,453.00
             1372.50,453.00 1377.00,577.50 1377.00,577.50
             1377.00,577.50 1408.50,474.00 1444.50,498.00
             1455.00,546.00 1399.50,577.50 1396.50,580.50
             1393.50,583.50 1468.50,526.50 1468.50,505.50
             1468.50,484.50 1468.50,573.00 1492.50,558.00
             1516.50,543.00 1530.00,511.50 1525.50,496.50
             1521.00,481.50 1512.00,607.50 1524.00,613.50
             1536.00,619.50 1533.00,501.00 1555.50,525.00
             1593.00,532.50 1615.50,501.00 1611.00,493.50
             1606.50,486.00 1563.00,462.00 1554.00,558.00
             1596.00,609.00 1621.50,526.50 1621.50,528.00" />
</svg>
